<svg xmlns="http://www.w3.org/2000/svg" width="29" height="29" viewBox="0 0 29 29" fill="none">
    <path d="M6.66667 7.69171C6.66667 6.99552 6.94323 6.32784 7.43551 5.83556C7.92779 5.34327 8.59547 5.06671 9.29167 5.06671H19.2083C19.9045 5.06671 20.5722 5.34327 21.0645 5.83556C21.5568 6.32784 21.8333 6.99552 21.8333 7.69171V16.7334H25.9167V20.525C25.9167 21.5307 25.5172 22.4951 24.8061 23.2062C24.095 23.9172 23.1306 24.3167 22.125 24.3167H16V19.65H17.4583C17.6904 19.65 17.913 19.5579 18.0771 19.3938C18.2411 19.2297 18.3333 19.0071 18.3333 18.775C18.3333 18.543 18.2411 18.3204 18.0771 18.1563C17.913 17.9922 17.6904 17.9 17.4583 17.9H15.4167C15.1452 17.5375 14.793 17.2433 14.388 17.0408C13.9829 16.8383 13.5362 16.733 13.0833 16.7334H6.66667V7.69171ZM21.8333 22.5667H22.125C22.6665 22.5667 23.1858 22.3516 23.5687 21.9687C23.9516 21.5858 24.1667 21.0665 24.1667 20.525V18.4834H21.8333V22.5667ZM11.0417 9.73338C10.8096 9.73338 10.587 9.82557 10.4229 9.98966C10.2589 10.1538 10.1667 10.3763 10.1667 10.6084C10.1667 10.8404 10.2589 11.063 10.4229 11.2271C10.587 11.3912 10.8096 11.4834 11.0417 11.4834H17.4583C17.6904 11.4834 17.913 11.3912 18.0771 11.2271C18.2411 11.063 18.3333 10.8404 18.3333 10.6084C18.3333 10.3763 18.2411 10.1538 18.0771 9.98966C17.913 9.82557 17.6904 9.73338 17.4583 9.73338H11.0417ZM11.0417 13.8167C10.8096 13.8167 10.587 13.9089 10.4229 14.073C10.2589 14.2371 10.1667 14.4596 10.1667 14.6917C10.1667 14.9238 10.2589 15.1463 10.4229 15.3104C10.587 15.4745 10.8096 15.5667 11.0417 15.5667H17.4583C17.6904 15.5667 17.913 15.4745 18.0771 15.3104C18.2411 15.1463 18.3333 14.9238 18.3333 14.6917C18.3333 14.4596 18.2411 14.2371 18.0771 14.073C17.913 13.9089 17.6904 13.8167 17.4583 13.8167H11.0417ZM2 19.65C2 19.1859 2.18437 18.7408 2.51256 18.4126C2.84075 18.0844 3.28587 17.9 3.75 17.9H13.0833C13.5475 17.9 13.9926 18.0844 14.3208 18.4126C14.649 18.7408 14.8333 19.1859 14.8333 19.65V24.3167C14.8333 24.7808 14.649 25.226 14.3208 25.5541C13.9926 25.8823 13.5475 26.0667 13.0833 26.0667H3.75C3.28587 26.0667 2.84075 25.8823 2.51256 25.5541C2.18437 25.226 2 24.7808 2 24.3167V19.65ZM13.6667 20.2334C13.3572 20.2334 13.0605 20.1105 12.8417 19.8917C12.6229 19.6729 12.5 19.3761 12.5 19.0667H11.3333C11.3333 19.6855 11.5792 20.279 12.0168 20.7166C12.4543 21.1542 13.0478 21.4 13.6667 21.4V20.2334ZM13.6667 22.5667C13.0478 22.5667 12.4543 22.8125 12.0168 23.2501C11.5792 23.6877 11.3333 24.2812 11.3333 24.9H12.5C12.5 24.5906 12.6229 24.2939 12.8417 24.0751C13.0605 23.8563 13.3572 23.7334 13.6667 23.7334V22.5667ZM4.33333 19.0667C4.33333 19.3761 4.21042 19.6729 3.99162 19.8917C3.77283 20.1105 3.47609 20.2334 3.16667 20.2334V21.4C3.78551 21.4 4.379 21.1542 4.81658 20.7166C5.25417 20.279 5.5 19.6855 5.5 19.0667H4.33333ZM5.5 24.9C5.5 24.2812 5.25417 23.6877 4.81658 23.2501C4.379 22.8125 3.78551 22.5667 3.16667 22.5667V23.7334C3.47609 23.7334 3.77283 23.8563 3.99162 24.0751C4.21042 24.2939 4.33333 24.5906 4.33333 24.9H5.5ZM10.4583 21.9834C10.4583 21.4419 10.2432 20.9226 9.86034 20.5397C9.47746 20.1568 8.95815 19.9417 8.41667 19.9417C7.87518 19.9417 7.35588 20.1568 6.97299 20.5397C6.5901 20.9226 6.375 21.4419 6.375 21.9834C6.375 22.5249 6.5901 23.0442 6.97299 23.4271C7.35588 23.8099 7.87518 24.025 8.41667 24.025C8.95815 24.025 9.47746 23.8099 9.86034 23.4271C10.2432 23.0442 10.4583 22.5249 10.4583 21.9834Z" fill="#00BA3F"/>
</svg>