<svg xmlns="http://www.w3.org/2000/svg" width="29" height="29" viewBox="0 0 29 29" fill="none">
    <path d="M12.8083 3.35522C13.2817 2.95624 13.8809 2.73743 14.5 2.73743C15.1191 2.73743 15.7183 2.95624 16.1917 3.35522L24.0667 9.99938C24.6593 10.4976 25 11.2314 25 12.0061V23.4417C25 23.9832 24.7849 24.5025 24.402 24.8854C24.0191 25.2683 23.4998 25.4834 22.9583 25.4834H19.4583C18.9168 25.4834 18.3975 25.2683 18.0147 24.8854C17.6318 24.5025 17.4167 23.9832 17.4167 23.4417V17.6084C17.4167 17.3763 17.3245 17.1538 17.1604 16.9897C16.9963 16.8256 16.7737 16.7334 16.5417 16.7334H12.4583C12.2263 16.7334 12.0037 16.8256 11.8396 16.9897C11.6755 17.1538 11.5833 17.3763 11.5833 17.6084V23.4417C11.5833 23.9832 11.3682 24.5025 10.9853 24.8854C10.6025 25.2683 10.0832 25.4834 9.54167 25.4834H6.04167C5.77355 25.4834 5.50806 25.4306 5.26035 25.328C5.01265 25.2254 4.78758 25.075 4.59799 24.8854C4.4084 24.6958 4.25802 24.4707 4.15541 24.223C4.05281 23.9753 4 23.7098 4 23.4417V12.0049C4 11.2314 4.34067 10.4976 4.93333 9.99822L12.8083 3.35522Z" fill="#00BA3F"/>
</svg>