<svg xmlns="http://www.w3.org/2000/svg" width="29" height="29" viewBox="0 0 29 29" fill="none">
    <path d="M4.83301 5.65C4.83301 4.87646 5.1403 4.13459 5.68728 3.58761C6.23426 3.04063 6.97613 2.73334 7.74967 2.73334H21.1663C21.5494 2.73334 21.9286 2.80878 22.2825 2.95536C22.6364 3.10193 22.9579 3.31677 23.2287 3.58761C23.4996 3.85845 23.7144 4.17998 23.861 4.53384C24.0076 4.88771 24.083 5.26698 24.083 5.65V22.275C24.083 22.5071 23.9908 22.7296 23.8267 22.8937C23.6626 23.0578 23.4401 23.15 23.208 23.15H6.58301C6.58301 23.4594 6.70592 23.7562 6.92472 23.975C7.14351 24.1938 7.44026 24.3167 7.74967 24.3167H23.208C23.4401 24.3167 23.6626 24.4089 23.8267 24.573C23.9908 24.737 24.083 24.9596 24.083 25.1917C24.083 25.4237 23.9908 25.6463 23.8267 25.8104C23.6626 25.9745 23.4401 26.0667 23.208 26.0667H7.74967C6.97613 26.0667 6.23426 25.7594 5.68728 25.2124C5.1403 24.6654 4.83301 23.9236 4.83301 23.15V5.65ZM12.0628 9.108C11.392 9.42884 10.6663 10.0133 10.6663 10.9C10.6663 11.7867 11.392 12.37 12.0628 12.692C12.7885 13.0385 13.7393 13.2333 14.7497 13.2333C15.76 13.2333 16.7108 13.0385 17.4365 12.692C18.1073 12.3712 18.833 11.7867 18.833 10.9C18.833 10.0133 18.1085 9.43 17.4365 9.108C16.7097 8.7615 15.76 8.56667 14.7497 8.56667C13.7393 8.56667 12.7885 8.7615 12.0628 9.108ZM18.8272 13.105C17.8647 13.8948 16.3947 14.4 14.7497 14.4C13.1047 14.4 11.6347 13.8948 10.6722 13.105C10.6682 13.1477 10.6663 13.1905 10.6663 13.2333C10.6663 14.5225 12.4945 15.5667 14.7497 15.5667C17.0048 15.5667 18.833 14.5225 18.833 13.2333C18.833 13.1902 18.8307 13.1482 18.8272 13.105ZM14.7497 16.7333C13.1047 16.7333 11.6347 16.2282 10.6722 15.4383C10.6682 15.481 10.6663 15.5238 10.6663 15.5667C10.6663 16.8558 12.4945 17.9 14.7497 17.9C17.0048 17.9 18.833 16.8558 18.833 15.5667C18.8331 15.5238 18.8312 15.481 18.8272 15.4383C17.8647 16.2282 16.3947 16.7333 14.7497 16.7333Z" fill="#00BA3F"/>
</svg>