<svg width="90" height="24" viewBox="0 0 90 24" fill="none" xmlns="http://www.w3.org/2000/svg">
    <g opacity="0.6">
        <path d="M2 11.9996C2 6.52 6.40691 2.06976 11.8697 2L3.27348 16.8869C2.46246 15.4417 2 13.7747 2 11.9996Z" fill="#667078"/>
        <path d="M6.88823 20.5965C6.19209 20.1816 5.5506 19.6846 4.97713 19.1188L14.6551 2.35548C18.8892 3.51863 22 7.39581 22 11.9996C22 13.9346 21.4504 15.7413 20.4989 17.272L14.6562 7.15205L6.88823 20.5965Z" fill="#667078"/>
        <path d="M9.31028 21.6341C10.1661 21.8725 11.0682 22 12 22C14.5935 22 16.9565 21.0126 18.7334 19.3933L14.6529 12.3318L9.31028 21.6341Z" fill="#667078"/>
    </g>
    <path d="M38.2832 16.5586V19H29.1719V4.9082H32.1211V16.5586H38.2832ZM43.8301 17.1055C45.0703 17.1055 46.0957 16.2949 46.0957 15.1621V14.4004L43.8887 14.5371C42.8242 14.6152 42.2188 15.0938 42.2188 15.8359C42.2188 16.6172 42.8633 17.1055 43.8301 17.1055ZM42.8926 19.166C40.9004 19.166 39.3867 17.877 39.3867 15.9922C39.3867 14.0879 40.8516 12.9844 43.459 12.8281L46.0957 12.6719V11.9785C46.0957 11.002 45.4121 10.4355 44.3379 10.4355C43.2734 10.4355 42.5996 10.9629 42.4629 11.7344H39.8555C39.9629 9.70312 41.6914 8.30664 44.4648 8.30664C47.1504 8.30664 48.8984 9.69336 48.8984 11.8027V19H46.1445V17.3984H46.0859C45.5 18.5117 44.2012 19.166 42.8926 19.166ZM50.7441 19V8.53125H53.498V10.3965H53.5566C54.1133 9.09766 55.2168 8.33594 56.8281 8.33594C59.1523 8.33594 60.4609 9.80078 60.4609 12.252V19H57.6094V12.8477C57.6094 11.4805 56.9648 10.6992 55.6855 10.6992C54.4062 10.6992 53.5957 11.6367 53.5957 12.9941V19H50.7441ZM66.1543 19.166C63.5371 19.166 61.8867 17.0957 61.8867 13.7461C61.8867 10.4258 63.5469 8.36523 66.1738 8.36523C67.6875 8.36523 68.8594 9.16602 69.3672 10.3281H69.4258V4.9082H72.2773V19H69.4648V17.2031H69.416C68.9082 18.3555 67.6973 19.166 66.1543 19.166ZM67.1211 10.6504C65.6855 10.6504 64.8066 11.8516 64.8066 13.7656C64.8066 15.6895 65.6855 16.8711 67.1211 16.8711C68.5371 16.8711 69.4453 15.6797 69.4453 13.7656C69.4453 11.8613 68.5371 10.6504 67.1211 10.6504ZM74.2305 19V8.53125H77.082V19H74.2305ZM75.6562 7.37891C74.7969 7.37891 74.1328 6.72461 74.1328 5.9043C74.1328 5.07422 74.7969 4.42969 75.6562 4.42969C76.5156 4.42969 77.1797 5.07422 77.1797 5.9043C77.1797 6.72461 76.5156 7.37891 75.6562 7.37891ZM83.0293 17.1055C84.2695 17.1055 85.2949 16.2949 85.2949 15.1621V14.4004L83.0879 14.5371C82.0234 14.6152 81.418 15.0938 81.418 15.8359C81.418 16.6172 82.0625 17.1055 83.0293 17.1055ZM82.0918 19.166C80.0996 19.166 78.5859 17.877 78.5859 15.9922C78.5859 14.0879 80.0508 12.9844 82.6582 12.8281L85.2949 12.6719V11.9785C85.2949 11.002 84.6113 10.4355 83.5371 10.4355C82.4727 10.4355 81.7988 10.9629 81.6621 11.7344H79.0547C79.1621 9.70312 80.8906 8.30664 83.6641 8.30664C86.3496 8.30664 88.0977 9.69336 88.0977 11.8027V19H85.3438V17.3984H85.2852C84.6992 18.5117 83.4004 19.166 82.0918 19.166Z" fill="#00101E"/>
</svg>
